<svg width="26" height="19" viewBox="0 0 26 19" fill="none" xmlns="http://www.w3.org/2000/svg">
<rect width="26" height="19" rx="2" fill="white"/>
<mask id="mask0_7_130" style="mask-type:alpha" maskUnits="userSpaceOnUse" x="0" y="0" width="26" height="19">
<rect width="26" height="19" rx="2" fill="white"/>
</mask>
<g mask="url(#mask0_7_130)">
<path fill-rule="evenodd" clip-rule="evenodd" d="M26 0H0V1.26667H26V0ZM26 2.53333H0V3.8H26V2.53333ZM0 5.06667H26V6.33333H0V5.06667ZM26 7.6H0V8.86667H26V7.6ZM0 10.1333H26V11.4H0V10.1333ZM26 12.6667H0V13.9333H26V12.6667ZM0 15.2H26V16.4667H0V15.2ZM26 17.7333H0V19H26V17.7333Z" fill="#D02F44"/>
<rect width="11.1429" height="8.86667" fill="#46467F"/>
<g filter="url(#filter0_d_7_130)">
<path fill-rule="evenodd" clip-rule="evenodd" d="M2.47619 1.9C2.47619 2.24978 2.19904 2.53333 1.85715 2.53333C1.51526 2.53333 1.2381 2.24978 1.2381 1.9C1.2381 1.55022 1.51526 1.26666 1.85715 1.26666C2.19904 1.26666 2.47619 1.55022 2.47619 1.9ZM4.95238 1.9C4.95238 2.24978 4.67523 2.53333 4.33334 2.53333C3.99145 2.53333 3.71429 2.24978 3.71429 1.9C3.71429 1.55022 3.99145 1.26666 4.33334 1.26666C4.67523 1.26666 4.95238 1.55022 4.95238 1.9ZM6.80953 2.53333C7.15142 2.53333 7.42857 2.24978 7.42857 1.9C7.42857 1.55022 7.15142 1.26666 6.80953 1.26666C6.46764 1.26666 6.19048 1.55022 6.19048 1.9C6.19048 2.24978 6.46764 2.53333 6.80953 2.53333ZM9.90477 1.9C9.90477 2.24978 9.62761 2.53333 9.28572 2.53333C8.94383 2.53333 8.66667 2.24978 8.66667 1.9C8.66667 1.55022 8.94383 1.26666 9.28572 1.26666C9.62761 1.26666 9.90477 1.55022 9.90477 1.9ZM3.09524 3.8C3.43713 3.8 3.71429 3.51644 3.71429 3.16666C3.71429 2.81688 3.43713 2.53333 3.09524 2.53333C2.75335 2.53333 2.47619 2.81688 2.47619 3.16666C2.47619 3.51644 2.75335 3.8 3.09524 3.8ZM6.19048 3.16666C6.19048 3.51644 5.91332 3.8 5.57143 3.8C5.22954 3.8 4.95238 3.51644 4.95238 3.16666C4.95238 2.81688 5.22954 2.53333 5.57143 2.53333C5.91332 2.53333 6.19048 2.81688 6.19048 3.16666ZM8.04762 3.8C8.38951 3.8 8.66667 3.51644 8.66667 3.16666C8.66667 2.81688 8.38951 2.53333 8.04762 2.53333C7.70573 2.53333 7.42857 2.81688 7.42857 3.16666C7.42857 3.51644 7.70573 3.8 8.04762 3.8ZM9.90477 4.43333C9.90477 4.78311 9.62761 5.06666 9.28572 5.06666C8.94383 5.06666 8.66667 4.78311 8.66667 4.43333C8.66667 4.08355 8.94383 3.8 9.28572 3.8C9.62761 3.8 9.90477 4.08355 9.90477 4.43333ZM6.80953 5.06666C7.15142 5.06666 7.42857 4.78311 7.42857 4.43333C7.42857 4.08355 7.15142 3.8 6.80953 3.8C6.46764 3.8 6.19048 4.08355 6.19048 4.43333C6.19048 4.78311 6.46764 5.06666 6.80953 5.06666ZM4.95238 4.43333C4.95238 4.78311 4.67523 5.06666 4.33334 5.06666C3.99145 5.06666 3.71429 4.78311 3.71429 4.43333C3.71429 4.08355 3.99145 3.8 4.33334 3.8C4.67523 3.8 4.95238 4.08355 4.95238 4.43333ZM1.85715 5.06666C2.19904 5.06666 2.47619 4.78311 2.47619 4.43333C2.47619 4.08355 2.19904 3.8 1.85715 3.8C1.51526 3.8 1.2381 4.08355 1.2381 4.43333C1.2381 4.78311 1.51526 5.06666 1.85715 5.06666ZM3.71429 5.7C3.71429 6.04978 3.43713 6.33333 3.09524 6.33333C2.75335 6.33333 2.47619 6.04978 2.47619 5.7C2.47619 5.35022 2.75335 5.06666 3.09524 5.06666C3.43713 5.06666 3.71429 5.35022 3.71429 5.7ZM5.57143 6.33333C5.91332 6.33333 6.19048 6.04978 6.19048 5.7C6.19048 5.35022 5.91332 5.06666 5.57143 5.06666C5.22954 5.06666 4.95238 5.35022 4.95238 5.7C4.95238 6.04978 5.22954 6.33333 5.57143 6.33333ZM8.66667 5.7C8.66667 6.04978 8.38951 6.33333 8.04762 6.33333C7.70573 6.33333 7.42857 6.04978 7.42857 5.7C7.42857 5.35022 7.70573 5.06666 8.04762 5.06666C8.38951 5.06666 8.66667 5.35022 8.66667 5.7ZM9.28572 7.6C9.62761 7.6 9.90477 7.31644 9.90477 6.96666C9.90477 6.61688 9.62761 6.33333 9.28572 6.33333C8.94383 6.33333 8.66667 6.61688 8.66667 6.96666C8.66667 7.31644 8.94383 7.6 9.28572 7.6ZM7.42857 6.96666C7.42857 7.31644 7.15142 7.6 6.80953 7.6C6.46764 7.6 6.19048 7.31644 6.19048 6.96666C6.19048 6.61688 6.46764 6.33333 6.80953 6.33333C7.15142 6.33333 7.42857 6.61688 7.42857 6.96666ZM4.33334 7.6C4.67523 7.6 4.95238 7.31644 4.95238 6.96666C4.95238 6.61688 4.67523 6.33333 4.33334 6.33333C3.99145 6.33333 3.71429 6.61688 3.71429 6.96666C3.71429 7.31644 3.99145 7.6 4.33334 7.6ZM2.47619 6.96666C2.47619 7.31644 2.19904 7.6 1.85715 7.6C1.51526 7.6 1.2381 7.31644 1.2381 6.96666C1.2381 6.61688 1.51526 6.33333 1.85715 6.33333C2.19904 6.33333 2.47619 6.61688 2.47619 6.96666Z" fill="url(#paint0_linear_7_130)"/>
</g>
</g>
<defs>
<filter id="filter0_d_7_130" x="1.2381" y="1.26666" width="8.66669" height="7.33331" filterUnits="userSpaceOnUse" color-interpolation-filters="sRGB">
<feFlood flood-opacity="0" result="BackgroundImageFix"/>
<feColorMatrix in="SourceAlpha" type="matrix" values="0 0 0 0 0 0 0 0 0 0 0 0 0 0 0 0 0 0 127 0" result="hardAlpha"/>
<feOffset dy="1"/>
<feColorMatrix type="matrix" values="0 0 0 0 0 0 0 0 0 0 0 0 0 0 0 0 0 0 0.06 0"/>
<feBlend mode="normal" in2="BackgroundImageFix" result="effect1_dropShadow_7_130"/>
<feBlend mode="normal" in="SourceGraphic" in2="effect1_dropShadow_7_130" result="shape"/>
</filter>
<linearGradient id="paint0_linear_7_130" x1="1.2381" y1="1.26666" x2="1.2381" y2="7.6" gradientUnits="userSpaceOnUse">
<stop stop-color="white"/>
<stop offset="1" stop-color="#F0F0F0"/>
</linearGradient>
</defs>
</svg>
